Coordinates
datacolumns 6
datarows 77
range 0 0.76
inDegrees=yes
Units are S.I. units (second, meters, Newtons, ...)
If the header above contains a line with 'inDegrees', this indicates whether rotational values are in degrees (yes) or radians (no).
endheader
time	foot_tx	hip_flexion_r	knee_angle_r	ankle_angle_r	lumbar
0	0.24645865	56.32011388	-86.9454314	6.12011014	-36.75374884
0.01	0.24646499	56.45555774	-86.97103061	6.15131583	-36.87990822
0.02	0.2464763	56.60295305	-87.00027318	6.18373615	-37.01706559
0.03	0.24648957	56.76202427	-87.03235961	6.21724341	-37.16561714
0.04	0.24650176	56.93258128	-87.06618955	6.25150466	-37.32592875
0.05	0.24653279	57.145876	-87.09858907	6.27978758	-37.46741919
0.06	0.2465452	57.33627658	-87.12960222	6.3122496	-37.65646671
0.07	0.24655947	57.53591419	-87.15700613	6.34251896	-37.86095707
0.08	0.24657015	57.74697617	-87.18024479	6.37051007	-38.07954339
0.09	0.24657371	57.97059114	-87.19905376	6.39616143	-38.31200439
0.1	0.24656961	58.20834229	-87.21303582	6.41900972	-38.55800489
0.11	0.24655796	58.46216435	-87.2219441	6.43865129	-38.81713055
0.12	0.24653916	58.733592	-87.22597286	6.4550986	-39.08900079
0.13	0.24651469	59.02371852	-87.22565546	6.46866284	-39.37306658
0.14	0.24648323	59.33315856	-87.22172282	6.48004694	-39.66911946
0.15	0.24644949	59.6616576	-87.21451993	6.48951726	-39.97730513
0.16	0.24641077	60.00932648	-87.20510269	6.49816293	-40.29745838
0.17	0.24636382	60.42523756	-87.19928712	6.50444717	-40.57780429
0.18	0.24631537	60.803057	-87.18776722	6.51470853	-40.9295629
0.19	0.24626224	61.24872284	-87.18090626	6.52364592	-41.24153447
0.2	0.24620811	61.65972678	-87.17020295	6.5380082	-41.62080342
0.21	0.24615065	62.17021381	-87.16778236	6.55037295	-41.92662201
0.22	0.24609529	62.67428691	-87.16424541	6.5676667	-42.26895485
0.23	0.24604546	63.20834895	-87.16326237	6.58809375	-42.60883176
0.24	0.24600367	63.77303728	-87.1641622	6.61212805	-42.94429345
0.25	0.24597145	64.3678787	-87.16706916	6.64035845	-43.27391479
0.26	0.2459462	64.99745338	-87.17252124	6.67336544	-43.5910222
0.27	0.24592446	65.66398528	-87.18113286	6.71178922	-43.8909524
0.28	0.24589829	66.37574574	-87.19427922	6.75615354	-44.16225028
0.29	0.24585396	67.14038264	-87.21354021	6.80771922	-44.39283315
0.3	0.24578419	67.96494351	-87.23954307	6.86763025	-44.56913091
0.31	0.24567895	68.84246216	-87.27380072	6.94035763	-44.68888638
0.32	0.24555078	69.77002045	-87.31359867	7.02664267	-44.74567493
0.33	0.24541131	70.73976885	-87.35731351	7.12836631	-44.73842681
0.34	0.2452524	71.74591218	-87.40698486	7.24992498	-44.66454447
0.35	0.24511234	72.77794459	-87.45437628	7.38666778	-44.53235286
0.36	0.2449657	73.83182306	-87.50690825	7.54623057	-44.33944082
0.37	0.24484752	74.89987776	-87.55736525	7.72393709	-44.09417159
0.38	0.24476021	75.97137387	-87.60628768	7.9213619	-43.80626547
0.39	0.24471527	77.04471207	-87.65025909	8.13639065	-43.47767536
0.4	0.24471244	78.11338359	-87.68731821	8.368136	-43.11503663
0.41	0.24474693	79.1722342	-87.71514183	8.61516725	-42.72350975
0.42	0.2448101	80.22057809	-87.73287195	8.8763209	-42.30285281
0.43	0.24490406	81.24206127	-87.73581647	9.14810601	-41.87317383
0.44	0.24500989	82.2414889	-87.72507465	9.42990247	-41.42795286
0.45	0.24512681	83.20917729	-87.69919084	9.7189426	-40.97968537
0.46	0.24525018	84.13625593	-87.65766309	10.01339297	-40.53947688
0.47	0.24538179	85.01509286	-87.60059571	10.31086648	-40.11670607
0.48	0.24552276	85.83334316	-87.52903774	10.60996971	-39.72487481
0.49	0.24567651	86.57022281	-87.44631514	10.91135331	-39.38573853
0.5	0.2458431	87.21903652	-87.35341664	11.2132886	-39.10365813
0.51	0.24601829	87.76653939	-87.25277479	11.51641342	-38.888147
0.52	0.24620845	88.19782024	-87.14403425	11.81970024	-38.7522457
0.53	0.24639543	88.51284824	-87.02721906	12.1240767	-38.68633911
0.54	0.24657829	88.71048113	-86.90003847	12.42856829	-38.68540003
0.55	0.24675273	88.79859868	-86.75880539	12.73148808	-38.73395502
0.56	0.24691819	88.78871328	-86.59892587	13.03029671	-38.81501927
0.57	0.247073	88.69290216	-86.41612241	13.32295709	-38.9119517
0.58	0.24721581	88.5221965	-86.20540854	13.60684438	-39.01344778
0.59	0.24734949	88.2866843	-85.96188887	13.87919609	-39.11008206
0.6	0.24746246	88.00379521	-85.6832345	14.13920678	-39.18460141
0.61	0.24756699	87.67995908	-85.36304572	14.38246076	-39.23443043
0.62	0.24766064	87.32623115	-84.99859701	14.60741397	-39.25029584
0.63	0.24774682	86.94783224	-84.58674402	14.81213875	-39.22966217
0.64	0.24783441	86.55265758	-84.12426716	14.99345723	-39.16699055
0.65	0.24790937	86.13641045	-83.61269729	15.15370424	-39.06794018
0.66	0.24799384	85.7038986	-83.04989654	15.28919739	-38.93149248
0.67	0.24807227	85.25293549	-82.43843525	15.40199072	-38.76035798
0.68	0.24815577	84.7837325	-81.77973367	15.49100216	-38.5569528
0.69	0.24823644	84.29176713	-81.07751395	15.55854211	-38.32719123
0.7	0.24831695	83.77378596	-80.33172115	15.60360638	-38.07711385
0.71	0.24839924	83.23257513	-79.54619541	15.62729463	-37.80282389
0.72	0.24847464	82.65778632	-78.72385619	15.63209918	-37.51753806
0.73	0.24854232	82.05182917	-77.86600187	15.61815767	-37.21984395
0.74	0.24860054	81.41179298	-76.97587059	15.58751363	-36.9132565
0.75	0.24865205	80.74174236	-76.05503639	15.54037965	-36.59433835
0.76	0.2487039	80.04160446	-75.1067443	15.47797354	-36.26448616
